<?xml version="1.0" encoding="iso-8859-1"?>
<!-- Generator: Adobe Illustrator 19.0.0, SVG Export Plug-In . SVG Version: 6.00 Build 0)  -->
<svg version="1.1" id="Capa_1" xmlns="http://www.w3.org/2000/svg" xmlns:xlink="http://www.w3.org/1999/xlink" x="0px" y="0px"
	 viewBox="0 0 333.013 333.013" style="enable-background:new 0 0 333.013 333.013;" xml:space="preserve">
<g>
	<g>
		<path d="M292.466,253.813l-61.2-71.2l-10.4-12.4h42c1.2,0,2.8-0.4,3.6-1.2c2.4-2,2.8-5.6,0.8-8l-48.4-56l-7.2-8.4h27.6
			c1.2,0,2.8-0.4,3.6-1.2c2.4-2,2.8-5.6,0.8-8l-36.8-42.8l-36.4-42.4c-0.4-0.4-0.4-0.4-0.8-0.8c-2.4-2-6-2-8,0.8l-36.8,42.8
			l-36.4,42.4c-1.2,1.2-1.6,2.4-1.6,4c0,3.2,2.8,6,6,6h27.6l-7.2,8.4l-48,56c-1.2,1.2-1.6,2.4-1.6,4c0,3.2,2.8,6,6,6h42l-10.4,12.4
			l-60.4,68.8c-1.2,1.2-1.6,2.4-1.6,4c0,3.2,2.8,6,6,6h98.8v56c0,4,1.6,7.2,4,10c2.4,2.4,6,4,10,4h17.2c4,0,7.2-1.6,10-4
			c2.4-2.4,4-6,4-10v-56h98.8c1.2,0,2.8-0.4,3.6-1.2C294.066,259.813,294.466,256.212,292.466,253.813z M182.866,251.013
			c-3.2,0-6,2.8-6,6v62c0,0.8-0.4,1.2-0.8,1.6c-0.4,0.4-1.2,0.8-1.6,0.8h-17.2c-0.8,0-1.2-0.4-1.6-0.8c-0.4-0.4-0.8-1.2-0.8-1.6v-62
			c0-3.2-2.8-6-6-6h-91.2l52.4-60.8l18.8-22c2-2.4,2-6-0.8-8c-1.2-0.8-2.4-1.2-3.6-1.2h-42.4l40-46.4l15.6-18c2-2.4,2-6-0.8-8
			c-1.2-0.8-2.4-1.2-3.6-1.2h-27.6l28.4-32.8l32-38.4l32.4,37.6l28.4,32.8h-27.6c-3.2,0-6,2.8-6,6c0,1.6,0.8,3.2,1.6,4l15.2,17.6
			l40,46.4h-42c-3.2,0-6,2.8-6,6c0,1.6,0.8,3.2,1.6,4l18.4,21.6l52.4,60.8H182.866z"/>
	</g>
</g>
<g>
</g>
<g>
</g>
<g>
</g>
<g>
</g>
<g>
</g>
<g>
</g>
<g>
</g>
<g>
</g>
<g>
</g>
<g>
</g>
<g>
</g>
<g>
</g>
<g>
</g>
<g>
</g>
<g>
</g>
</svg>
