<svg id="Layer_1" enable-background="new 0 0 60 60" height="512" viewBox="0 0 60 60" width="512" xmlns="http://www.w3.org/2000/svg"><path d="m41.03 45c-.372 0-.722-.208-.895-.553l-5-10c-.069-.139-.105-.292-.105-.447v-33c0-.471.329-.878.789-.978.461-.098.927.135 1.122.564l5 11c.059.13.089.271.089.414v32c0 .464-.319.867-.77.973-.077.018-.154.027-.23.027zm-4-11.236 3 6v-27.547l-3-6.6z"/><path d="m53.03 50h-12c-.552 0-1-.448-1-1v-34c0-.552.448-1 1-1h12c.552 0 1 .448 1 1v34c0 .552-.448 1-1 1zm-11-2h10v-32h-10z"/><path d="m41.03 45h-22c-.347 0-.668-.18-.851-.474-.182-.295-.199-.663-.044-.973l5-10c.169-.339.516-.553.895-.553h12c.379 0 .725.214.895.553l5 10c.155.31.139.678-.044.973-.183.294-.505.474-.851.474zm-20.382-2h18.764l-4-8h-10.764z"/><path d="m36.03 35h-12c-.552 0-1-.448-1-1v-33c0-.552.448-1 1-1h12c.552 0 1 .448 1 1v33c0 .552-.448 1-1 1zm-11-2h10v-31h-10z"/><path d="m59.03 60c-.345 0-.673-.179-.857-.485l-6-10c-.093-.156-.143-.333-.143-.515v-34c0-.464.319-.867.771-.973.451-.106.917.111 1.124.526l6 12c.069.139.105.292.105.447v32c0 .45-.3.844-.733.964-.089.024-.178.036-.267.036zm-5-11.277 4 6.667v-28.154l-4-8z"/><path d="m59.03 60h-24c-.36 0-.692-.194-.87-.507-.177-.313-.173-.698.013-1.007l6-10c.181-.301.506-.485.857-.485h12c.352 0 .677.184.857.485l6 10c.186.309.19.694.013 1.007s-.51.507-.87.507zm-22.234-2h20.468l-4.8-8h-10.868z"/><path d="m35.03 60c-.088 0-.178-.012-.267-.036-.434-.12-.733-.514-.733-.964v-15c0-.552.448-1 1-1h6c.552 0 1 .448 1 1v5c0 .181-.049.359-.143.515l-6 10c-.183.306-.512.485-.857.485zm1-15v10.39l4-6.667v-3.723z"/><path d="m19.03 45c-.076 0-.153-.009-.23-.027-.452-.106-.771-.509-.771-.973v-32c0-.143.031-.284.09-.414l5-11c.195-.429.662-.662 1.122-.564.46.1.788.507.788.978v33c0 .155-.036.309-.105.447l-5 10c-.172.345-.522.553-.894.553zm1-32.783v27.547l3-6v-28.147z"/><path d="m19.03 50h-12c-.552 0-1-.448-1-1v-34c0-.552.448-1 1-1h12c.552 0 1 .448 1 1v34c0 .552-.448 1-1 1zm-11-2h10v-32h-10z"/><path d="m1.03 60c-.088 0-.178-.012-.267-.036-.434-.12-.733-.514-.733-.964v-32c0-.155.036-.309.105-.447l6-12c.208-.415.672-.633 1.125-.526.451.106.77.509.77.973v34c0 .181-.049.359-.143.515l-6 10c-.183.306-.512.485-.857.485zm1-32.764v28.154l4-6.667v-29.487z"/><path d="m25.03 60h-24c-.36 0-.692-.194-.87-.507-.177-.313-.173-.698.013-1.007l6-10c.181-.301.506-.485.857-.485h12c.352 0 .677.184.857.485l6 10c.186.309.19.694.013 1.007s-.51.507-.87.507zm-22.234-2h20.468l-4.8-8h-10.868z"/><path d="m25.03 60c-.345 0-.673-.179-.857-.485l-6-10c-.093-.156-.143-.333-.143-.515v-5c0-.552.448-1 1-1h6c.552 0 1 .448 1 1v15c0 .45-.3.844-.733.964-.089.024-.178.036-.267.036zm-5-11.277 4 6.667v-10.39h-4z"/></svg>